<mxfile host="app.diagrams.net" modified="2022-01-18T22:13:22.703Z" agent="5.0 (Windows NT 10.0; Win64; x64) AppleWebKit/537.36 (KHTML, like Gecko) Chrome/97.0.4692.71 Safari/537.36" etag="inLef_hdeQtkmPphGAzN" version="16.2.7" type="github">
  <diagram id="FI1HCP-CL0ABK_U0Km_D" name="Page-1">
    <mxGraphModel dx="2126" dy="697" grid="1" gridSize="10" guides="1" tooltips="1" connect="1" arrows="1" fold="1" page="1" pageScale="1" pageWidth="850" pageHeight="1100" math="0" shadow="0">
      <root>
        <mxCell id="0" />
        <mxCell id="1" parent="0" />
        <mxCell id="zn3FjfoVYna4GNYk1RI1-9" value="" style="rounded=0;whiteSpace=wrap;html=1;" vertex="1" parent="1">
          <mxGeometry x="110" y="80" width="120" height="60" as="geometry" />
        </mxCell>
        <mxCell id="zn3FjfoVYna4GNYk1RI1-4" value="Student" style="text;html=1;resizable=0;autosize=1;align=center;verticalAlign=middle;points=[];fillColor=none;strokeColor=none;rounded=0;" vertex="1" parent="1">
          <mxGeometry x="130" y="100" width="60" height="20" as="geometry" />
        </mxCell>
        <mxCell id="zn3FjfoVYna4GNYk1RI1-5" value="" style="ellipse;whiteSpace=wrap;html=1;" vertex="1" parent="1">
          <mxGeometry x="-120" y="20" width="140" height="40" as="geometry" />
        </mxCell>
        <mxCell id="zn3FjfoVYna4GNYk1RI1-7" value="student id" style="text;html=1;resizable=0;autosize=1;align=center;verticalAlign=middle;points=[];fillColor=none;strokeColor=none;rounded=0;" vertex="1" parent="1">
          <mxGeometry x="-95" y="30" width="70" height="20" as="geometry" />
        </mxCell>
        <mxCell id="zn3FjfoVYna4GNYk1RI1-12" value="" style="endArrow=none;html=1;rounded=0;exitX=1.014;exitY=0.675;exitDx=0;exitDy=0;exitPerimeter=0;" edge="1" parent="1" source="zn3FjfoVYna4GNYk1RI1-5">
          <mxGeometry width="50" height="50" relative="1" as="geometry">
            <mxPoint x="50" y="50" as="sourcePoint" />
            <mxPoint x="110" y="80" as="targetPoint" />
            <Array as="points" />
          </mxGeometry>
        </mxCell>
        <mxCell id="zn3FjfoVYna4GNYk1RI1-14" value="" style="ellipse;whiteSpace=wrap;html=1;" vertex="1" parent="1">
          <mxGeometry x="-120" y="80" width="140" height="50" as="geometry" />
        </mxCell>
        <mxCell id="zn3FjfoVYna4GNYk1RI1-15" value="Student&amp;nbsp; School Emaiil" style="text;html=1;resizable=0;autosize=1;align=center;verticalAlign=middle;points=[];fillColor=none;strokeColor=none;rounded=0;" vertex="1" parent="1">
          <mxGeometry x="-120" y="95" width="140" height="20" as="geometry" />
        </mxCell>
        <mxCell id="zn3FjfoVYna4GNYk1RI1-17" value="" style="endArrow=none;html=1;rounded=0;exitX=1.007;exitY=0.6;exitDx=0;exitDy=0;exitPerimeter=0;entryX=0;entryY=0.5;entryDx=0;entryDy=0;" edge="1" parent="1" source="zn3FjfoVYna4GNYk1RI1-15" target="zn3FjfoVYna4GNYk1RI1-9">
          <mxGeometry width="50" height="50" relative="1" as="geometry">
            <mxPoint x="440" y="380" as="sourcePoint" />
            <mxPoint x="100" y="107" as="targetPoint" />
          </mxGeometry>
        </mxCell>
        <mxCell id="zn3FjfoVYna4GNYk1RI1-19" value="" style="ellipse;whiteSpace=wrap;html=1;" vertex="1" parent="1">
          <mxGeometry x="-130" y="150" width="160" height="50" as="geometry" />
        </mxCell>
        <mxCell id="zn3FjfoVYna4GNYk1RI1-20" value="Student Home Email" style="text;html=1;resizable=0;autosize=1;align=center;verticalAlign=middle;points=[];fillColor=none;strokeColor=none;rounded=0;" vertex="1" parent="1">
          <mxGeometry x="-125" y="160" width="130" height="20" as="geometry" />
        </mxCell>
        <mxCell id="zn3FjfoVYna4GNYk1RI1-21" value="" style="endArrow=none;html=1;rounded=0;exitX=0;exitY=0.75;exitDx=0;exitDy=0;entryX=0.994;entryY=0.34;entryDx=0;entryDy=0;entryPerimeter=0;" edge="1" parent="1" source="zn3FjfoVYna4GNYk1RI1-9" target="zn3FjfoVYna4GNYk1RI1-19">
          <mxGeometry width="50" height="50" relative="1" as="geometry">
            <mxPoint x="440" y="380" as="sourcePoint" />
            <mxPoint x="490" y="330" as="targetPoint" />
          </mxGeometry>
        </mxCell>
        <mxCell id="zn3FjfoVYna4GNYk1RI1-22" value="" style="ellipse;whiteSpace=wrap;html=1;" vertex="1" parent="1">
          <mxGeometry x="-125" y="220" width="155" height="50" as="geometry" />
        </mxCell>
        <mxCell id="zn3FjfoVYna4GNYk1RI1-23" value="Phone Number" style="text;html=1;resizable=0;autosize=1;align=center;verticalAlign=middle;points=[];fillColor=none;strokeColor=none;rounded=0;" vertex="1" parent="1">
          <mxGeometry x="-110" y="235" width="100" height="20" as="geometry" />
        </mxCell>
        <mxCell id="zn3FjfoVYna4GNYk1RI1-24" value="" style="endArrow=none;html=1;rounded=0;exitX=0.987;exitY=0.32;exitDx=0;exitDy=0;exitPerimeter=0;entryX=0;entryY=1;entryDx=0;entryDy=0;" edge="1" parent="1" source="zn3FjfoVYna4GNYk1RI1-22" target="zn3FjfoVYna4GNYk1RI1-9">
          <mxGeometry width="50" height="50" relative="1" as="geometry">
            <mxPoint x="200" y="380" as="sourcePoint" />
            <mxPoint x="250" y="330" as="targetPoint" />
          </mxGeometry>
        </mxCell>
        <mxCell id="zn3FjfoVYna4GNYk1RI1-25" value="" style="rounded=0;whiteSpace=wrap;html=1;" vertex="1" parent="1">
          <mxGeometry x="110" y="280" width="110" height="60" as="geometry" />
        </mxCell>
        <mxCell id="zn3FjfoVYna4GNYk1RI1-26" value="Home Address" style="text;html=1;resizable=0;autosize=1;align=center;verticalAlign=middle;points=[];fillColor=none;strokeColor=none;rounded=0;" vertex="1" parent="1">
          <mxGeometry x="120" y="300" width="90" height="20" as="geometry" />
        </mxCell>
      </root>
    </mxGraphModel>
  </diagram>
</mxfile>
